<svg id="Layer_1" enable-background="new 0 0 512 512" height="75" viewBox="0 0 512 512" width="75" xmlns="http://www.w3.org/2000/svg"><g><g><path d="m344.328 512v-117.065c0-40.637-27.451-74.841-64.814-85.138 18.819-8.843 31.854-27.96 31.854-50.129 0-30.578-24.789-55.367-55.367-55.367s-55.367 24.789-55.367 55.367c0 22.169 13.035 41.286 31.854 50.129-37.363 10.297-64.814 44.502-64.814 85.138v117.065z" fill="#b5e8e0"/><path d="m279.513 309.797c18.819-8.843 31.854-27.96 31.854-50.129 0-30.578-24.789-55.367-55.367-55.367-7.284 0-14.233 1.421-20.604 3.977 20.371 8.176 34.763 28.096 34.763 51.39 0 22.169-13.035 41.286-31.854 50.129 37.363 10.297 64.814 44.501 64.814 85.138v117.065h41.207v-117.065c.002-40.637-27.45-74.841-64.813-85.138z" fill="#97dbd1"/><path d="m256 512c0-40.637-27.451-74.841-64.814-85.138 18.819-8.843 31.854-27.96 31.854-50.129 0-30.578-24.789-55.367-55.367-55.367s-55.367 24.789-55.367 55.367c0 22.169 13.035 41.286 31.854 50.129-37.364 10.297-64.815 44.501-64.815 85.138z" fill="#ff9e5e"/><path d="m191.186 426.862c18.819-8.843 31.854-27.96 31.854-50.129 0-30.578-24.789-55.367-55.367-55.367-7.284 0-14.233 1.421-20.604 3.977 20.371 8.176 34.763 28.096 34.763 51.39 0 22.17-13.035 41.286-31.854 50.129 37.363 10.297 64.814 44.502 64.814 85.138h41.208c0-40.637-27.451-74.841-64.814-85.138z" fill="#fa8d46"/><path d="m432.655 512c0-40.637-27.451-74.841-64.814-85.138 18.819-8.843 31.854-27.96 31.854-50.129 0-30.578-24.789-55.367-55.367-55.367s-55.367 24.789-55.367 55.367c0 22.169 13.035 41.286 31.854 50.129-37.364 10.297-64.815 44.501-64.815 85.138z" fill="#ff7893"/><path d="m367.841 426.862c18.819-8.843 31.854-27.96 31.854-50.129 0-30.578-24.789-55.367-55.367-55.367-7.284 0-14.233 1.421-20.604 3.977 20.371 8.176 34.763 28.096 34.763 51.39 0 22.17-13.035 41.286-31.854 50.129 37.363 10.297 64.814 44.502 64.814 85.138h41.207c.001-40.637-27.45-74.841-64.813-85.138z" fill="#ff5e7f"/></g><path d="m326.159 70.159c0-38.748-31.411-70.159-70.159-70.159s-70.159 31.411-70.159 70.159c0 34.121 24.361 62.54 56.637 68.844l13.522 23.42 13.522-23.421c32.275-6.303 56.637-34.723 56.637-68.843z" fill="#fff7e8"/><path d="m256 0c-7.171 0-14.088 1.081-20.604 3.08 28.692 8.803 49.555 35.502 49.555 67.078 0 31.574-20.867 58.251-49.555 67.055 2.314.71 4.673 1.318 7.082 1.789l13.522 23.421 13.522-23.421c32.275-6.304 56.637-34.723 56.637-68.844 0-38.747-31.411-70.158-70.159-70.158z" fill="#fff1d6"/><g><path d="m140.293 223.703c0-38.741-31.406-70.146-70.146-70.146s-70.147 31.405-70.147 70.146 31.406 70.147 70.146 70.147c8.131 0 15.937-1.388 23.199-3.933l21.4 10.382v-22.451c15.602-12.866 25.548-32.344 25.548-54.145z" fill="#ffd88f"/></g><g><path d="m371.707 223.703c0-38.741 31.406-70.146 70.146-70.146s70.147 31.405 70.147 70.146-31.406 70.147-70.146 70.147c-8.131 0-15.937-1.388-23.199-3.933l-21.4 10.382v-22.451c-15.602-12.866-25.548-32.344-25.548-54.145z" fill="#ffe6b8"/></g></g></svg>